<svg width="92" height="103" viewBox="0 0 92 103" fill="none" xmlns="http://www.w3.org/2000/svg">
<path d="M41.7728 0.800003L43.8869 11.4699H36.4896L34.3765 8.26987H32.2635L34.3765 13.6032L32.2635 18.9397H34.3765L36.4896 15.7387H43.8869L41.7728 26.4085H44.9429C44.9429 26.4085 50.2272 15.7387 51.2832 15.7387H57.6235C59.7365 14.672 59.7365 12.5376 57.6235 11.4699H51.2832L44.944 0.800003H41.7739H41.7728ZM28.4331 13.7045L22.0928 15.8379L23.4133 19.8731L29.7536 17.7397L28.4331 13.7045ZM63.5669 13.7045L62.2464 17.7387L68.5867 19.872L69.9072 15.8379L63.5669 13.7045ZM16.512 19.1392L10.1717 22.3403L12.0875 26.1749L18.4267 22.9739L16.512 19.1392ZM75.488 19.1392L73.5733 22.9739L79.9125 26.1739L81.8283 22.3403L75.488 19.1403V19.1392ZM5.41653 27.0091L0.133331 32.3435L3.10506 35.3781L8.38826 30.0427L5.41653 27.0091ZM86.5835 27.0091L83.6117 30.0427L88.8949 35.3781L91.8667 32.3435L86.5835 27.0091ZM45.7355 28.3093C25.2725 28.3093 8.61973 45.1243 8.61973 65.7877C8.61973 86.4512 25.2725 103.2 45.7355 103.2C66.1995 103.2 82.8533 86.4512 82.8533 65.7877C82.8533 45.1243 66.1995 28.3093 45.7355 28.3093ZM45.7355 32.544C48.1611 32.544 50.528 32.8085 52.8021 33.3109C51.717 34.3546 50.7534 35.5175 49.9296 36.7776C60.5419 36.7776 53.184 45.8656 54.8171 47.5147C55.6331 48.3392 58.0949 46.6816 58.9109 46.6816V48.3157C58.9109 49.9637 52.3968 52.4395 51.5808 57.3845C50.7648 67.2768 58.0981 62.3573 62.1803 65.6544C65.4453 69.776 65.4539 78.0192 68.7189 80.4917C69.5349 76.3712 71.9723 75.5445 73.6053 71.4229C74.8917 68.9525 76.2261 65.9733 78.5589 64.2869C78.5803 64.7883 78.592 65.2811 78.592 65.7877C78.592 84.1451 63.9147 98.9653 45.7355 98.9653C27.5563 98.9653 12.88 84.1451 12.88 65.7877C12.88 62.8245 13.2512 59.952 13.9691 57.2181C15.9381 58.368 16.6091 60.4789 17.2715 63.1541C21.3525 67.2757 22.9845 71.4123 22.9845 76.3584C27.0656 81.3035 33.6171 84.6059 33.6171 94.4971L36.0597 95.3312C36.7008 94.0373 36.3744 92.6421 36.8864 91.1957C40.9675 79.6565 47.4859 80.4661 47.4859 72.2229C40.9557 70.5749 37.6811 61.5275 26.2528 68.1216C24.6208 67.2981 24.6347 64.8021 24.6347 63.1541C22.1867 61.5051 20.5493 59.8827 21.3664 56.5845L23.8091 58.2187C27.8912 49.9755 38.4992 47.5019 40.9472 43.3813C41.6523 40.5333 39.9381 37.056 37.8763 33.5104C40.4471 32.8709 43.0862 32.5463 45.7355 32.544Z" fill="#25347B"/>
</svg>
